<?xml version="1.0" encoding="utf-8"?>
<!-- Generator: Adobe Illustrator 26.0.2, SVG Export Plug-In . SVG Version: 6.00 Build 0)  -->
<svg version="1.1" id="Layer_1" xmlns="http://www.w3.org/2000/svg" xmlns:xlink="http://www.w3.org/1999/xlink" x="0px" y="0px"
	 viewBox="0 0 85 85" style="enable-background:new 0 0 85 85;" xml:space="preserve">
<style type="text/css">
	.st0{fill:#764AF1;}
</style>
<g>
	<path class="st0" d="M58.8,34.5l1.4,7.9c0,1.1,1,2.1,2.1,2.1h7.7c1.1,0,2.1-1,2.1-2.1l1.4-7.9c0-1.1-1-2.1-2.1-2.1H60.9
		C59.6,32.4,58.8,33.4,58.8,34.5z"/>
	<path class="st0" d="M66.6,46.9c-2.6,0-4.8,0.5-7.1,1.4c-1.9-4-3.7-8-4.7-10.6c-0.5-1.3-1-2.3-1.3-2.9c0-0.3,0.2-2.1-1.6-2.4
		c-2.1-0.5-9.3-0.3-12.2-2.3c-1.3-0.8-3.1-2.9-4.7-4.8c7.6,0.3,9.5-2.3,9.2-3.2c-0.3-1.1-1.1-3.2-4.2-1c-2.4,1.8-6.6,0.5-8.4-0.3
		c-0.2-0.3-0.5-0.5-0.5-0.6c-0.8-0.8-1.4-2.6-4-1.3c-2.6,1.3-2.7,4-2.7,4c0,1-1.8,16.1-1.8,16.1s-0.5,2.4,2.4,4.3
		c2.7,1.9,15,9.3,15,9.3s0.2,0,0.2,0.2c-1.8,1.6-3.9,3.4-6.4,4.8c-2.6-6.3-8.7-10.6-15.9-10.6c-9.5,0-17.2,7.7-17.2,17.2
		s7.7,17.2,17.2,17.2S35,73.6,35,64.1c0-1-0.2-1.9-0.2-2.9c1.8-1.1,3.7-2.4,5.8-3.9c-0.2,4.7-0.3,13.5-0.3,13.5s-0.5,2.3,0.2,2.7
		c0.6,0.5,1.9,1,2.6-1.4c0.8-2.4,3.4-18.3,3.4-18.3s0.3-1.1,0.3-2.3c3.2-3.9,5-7.2,5.8-9.8l0,0c1,2.7,2.4,5.6,3.9,8.5
		c-4.2,3.2-6.8,8-6.8,13.7c0,9.5,7.7,17.2,17.2,17.2s16.9-7.6,16.9-17.1S76,46.9,66.6,46.9z M17.8,77.7c-7.4,0-13.4-6-13.4-13.4
		s6-13.4,13.4-13.4c5.8,0,10.6,3.5,12.6,8.7c-3.4,1.6-7.1,2.7-11.6,3.4c0,0-2.6-0.8-2.9,1.4c-0.3,2.3,1.4,2.3,3.5,2.1
		c1.3-0.2,5.8-0.5,11.7-3.2c0,0.3,0,0.6,0,1C31.3,71.5,25.2,77.7,17.8,77.7z M47.6,43.4c-0.6,1.3-1.6,2.9-3.1,4.8
		C40.8,45,31.9,37.4,31.9,37.4v-7.6c0,0,3.1,3.4,6.9,4.8c3.9,1.4,10.9,0.2,10.9,0.2C49.3,36.6,49.3,39.8,47.6,43.4z M66.6,77.7
		c-7.4,0-13.4-6-13.4-13.4c0-4.2,1.9-7.9,4.8-10.3c2.7,5,5.5,9.2,6,10c1,1.6,3.1,3.4,4.2,1.6c1.1-1.8-0.2-2.1-2.9-6.3
		c-1.1-1.6-2.6-4.3-4-7.4c1.6-0.6,3.4-1.1,5.3-1.1c7.4,0,13.4,6,13.4,13.4S74.1,77.7,66.6,77.7z"/>
	<path class="st0" d="M54.6,23.9c1.9,0,3.4-1.6,3.4-3.4c0-1.9-1.6-3.4-3.4-3.4c-1.9,0-3.4,1.6-3.4,3.4
		C51.1,22.5,52.7,23.9,54.6,23.9z"/>
	<path class="st0" d="M46.8,26.3c0,1.4,1.3,1.1,1.3,1.1s17.2-0.2,18.3,0c1.1,0.2,1-1.1,1-1.1v-9.2c0-2.6-4.2-2.4-4.2-2.4v-1.4h-3.5
		v1.3l-1.1-0.2C57.7,12,56.4,10.9,54,11c-2.4,0.2-3.4,3.2-3.4,3.2c-4,1-3.7,3.5-3.7,3.5v8.5H46.8z M63.3,15.7h1.9v1.1h-1.9V15.7z
		 M54.6,14.4c3.4,0,6.1,2.7,6.1,6.1c0,3.4-2.7,6.1-6.1,6.1c-3.4,0-6.1-2.7-6.1-6.1C48.5,17.1,51.3,14.4,54.6,14.4z"/>
	<path class="st0" d="M28.7,17.8c0.2-0.2,0.3-0.5,0.6-0.6c0.5,0.2,1.1,0.3,1.6,0.3c3.4,0,6.3-2.7,6.3-6.3c0-0.3,0-0.6-0.2-1.1h0.3
		C34-3.1,19.7,6.5,23.6,13.9C25.4,17.3,28.7,17.8,28.7,17.8z M36.6,11.2c0,3.1-2.6,5.6-5.6,5.6c-0.5,0-0.8,0-1.1-0.2
		c3.2-3.9,4-7.2,4-7.2l2.6,0.5C36.5,10.4,36.6,10.7,36.6,11.2z"/>
</g>
</svg>
