<?xml version="1.0" encoding="utf-8"?>
<!-- Generator: Adobe Illustrator 25.4.6, SVG Export Plug-In . SVG Version: 6.00 Build 0)  -->
<svg version="1.1" xmlns="http://www.w3.org/2000/svg" xmlns:xlink="http://www.w3.org/1999/xlink" x="0px" y="0px"
	 viewBox="0 0 383.2 514.2" style="enable-background:new 0 0 383.2 514.2;" xml:space="preserve">
<style type="text/css">
	.st0{fill:#263B96;}
	.st1{fill:#EFD9EA;}
	.st2{fill:#F16052;}
	.st3{fill:#E4AECE;}
	.st4{fill:#6779BB;}
	.st5{fill:#FFFFFF;stroke:#000000;stroke-width:1.0661;stroke-miterlimit:10;}
</style>
<g id="Layer_1">
	<path class="st0" d="M296.4,254.8l-9.2,140.2c0,0,7.8-38-23.7-56.1c-29.2-16.7-56.2-7.4-64.5,13.6c-4.5,11.4-13.4,51.2-31,58.9
		s-24.1-1.1-46.2-4.1c-15.4-2.1-30,1.4-37,17.3l23.8-61.5l64-40.7l55.8-7.6L296.4,254.8z"/>
	<path class="st1" d="M230.8,330c-23.6,1.2-32.9,15.2-41.4,42.2c-8.4,27-14.4,41.4-35.5,39.7s-24.5-11-49-5.9s-22.2,27.2-19.7,34.8
		c2.5,7.6,7.9,18.4,28.2,21c20.3,2.5,18.6,18.6,20.3,30.4c1.7,11.8,12.7,22,31.3,18.6c18.6-3.4,32.1-25.3,35.5-38
		c3.4-12.7,5.9-27,24.5-32.1c18.6-5.1,39.7-11.8,55.7-29.6C296.7,393.3,295,326.6,230.8,330z"/>
</g>
<g id="Layer_2">
	<path class="st1" d="M370.4,283.2c0,0,15.8-11.3,4.5-21.4c-11.3-10.1-26.5-10.6-25.3-24.8c1.7-20.3-7.9-28.7-7.9-28.7l-45.3,47
		L370.4,283.2z"/>
	<path class="st2" d="M296.4,255.3l74.1,27.9c0,0-72.1,29.3-82.2,91.2L296.4,255.3z"/>
</g>
<g id="Layer_3">
	<polygon class="st2" points="5.4,362.4 108.7,362.4 52.5,259.1 	"/>
	<polygon class="st3" points="108.7,362.4 84.7,423.6 5.4,362.4 	"/>
</g>
<g id="Layer_4">
	<polygon class="st1" points="108.1,362.4 172.6,321.9 109.8,219.4 51.9,259.1 	"/>
	<polygon class="st3" points="172.6,321.9 230,315.6 169.4,261.2 109.8,219.4 172.3,321.5 172.3,321.9 172.6,321.9 172.6,321.9 	"/>
</g>
<g id="Layer_5">
	<path class="st4" d="M181.8,234.5l68.9,70.7l92.2-97.4c0.5-3,0.8-6.1,0.8-9.3c0-29.1-31.2-51.6-60.3-51.6
		C281.2,146.9,181.8,234.5,181.8,234.5z"/>
	<ellipse class="st1" cx="218" cy="267.8" rx="49.8" ry="49.7"/>
</g>
<g id="Layer_6">
	<path class="st5" d="M109.8,219.4"/>
	<path class="st2" d="M211.9,219.5c0,0-32.6-0.1-43.3,41.6l-58.8-41.6L211.9,219.5z"/>
	<rect x="109.8" y="121.1" class="st1" width="102.5" height="98.3"/>
	<polygon class="st0" points="109.8,219.4 51.9,259.1 109.8,121.1 	"/>
</g>
<g id="Layer_7">
	<polygon class="st0" points="49.3,144.8 71.5,152.7 33.6,177.1 58.6,187.8 22.6,210.9 44.4,218.7 6.2,243.3 31.3,252.2 90.1,118.4 
			"/>
	<polygon class="st0" points="61,103.8 109.8,121.1 140.4,52.5 	"/>
	<polygon class="st3" points="6.5,243.4 51.9,259.1 109.8,121.1 61,103.8 75.9,134.3 49.5,145.1 61.9,164.9 33.8,177.3 49.5,198.8 
		23,211.2 37.1,225.3 	"/>
</g>
<g id="Layer_8">
	<path class="st3" d="M211.9,219.5l71.4-72.7l-64.5-54.5c0,0,10.5,12.4-8.3,30L211.9,219.5z"/>
	<path class="st0" d="M283.3,146.7L195.3,20c0,0,8.2,15.6,4.5,25.1c-3.7,9.5,3.1,34,20.8,50.9S283.3,146.7,283.3,146.7z"/>
	<path class="st2" d="M109.8,121.9h100.8c0,0,21.3-17,8.9-31.9c-12.4-14.9-20.2-16.3-16.9-39.4s-11-44.4-40.8-46L109.8,121.9z"/>
</g>
</svg>
