<?xml version="1.0" encoding="utf-8"?>
<!-- Generator: Adobe Illustrator 26.0.2, SVG Export Plug-In . SVG Version: 6.00 Build 0)  -->
<svg version="1.1" id="Layer_1" xmlns="http://www.w3.org/2000/svg" xmlns:xlink="http://www.w3.org/1999/xlink" x="0px" y="0px"
	 viewBox="0 0 100 100" style="enable-background:new 0 0 100 100;" xml:space="preserve">
<style type="text/css">
	.st0{fill:#fff;}
</style>
<g>
	<path class="st0" d="M57.7,11.9c-15.1,0.6-22.5,4.1-22.8,4.3c-0.4,0.1-0.6,0.7-0.4,1.2c0.1,0.3,0.4,0.4,0.7,0.4c0.1,0,0.3,0,0.6,0
		c0.1,0,7.3-3.5,22-4.1c14.4-0.6,19,2.9,19.1,2.9c0.3,0.3,0.9,0.3,1.2-0.1c0.3-0.3,0.3-0.9-0.1-1.2C77.8,15.1,72.9,11.3,57.7,11.9z"
		/>
	<path class="st0" d="M10.2,24.8c0.3,0,0.4,0,0.6-0.1c0.1-0.1,20.4-13.1,41.6-15c21-1.9,30.9,4.6,31,4.6c0.3,0.3,0.9,0.1,1.2-0.3
		c0.3-0.3,0.1-0.9-0.3-1.2c-0.4-0.3-10.4-6.8-32-4.8S9.9,23,9.8,23.2c-0.4,0.3-0.4,0.9-0.3,1.2C9.6,24.6,9.9,24.8,10.2,24.8z"/>
	<path class="st0" d="M23.4,12.6c0,0,0.1-0.1,0.3-0.1c0.1-0.1,13.7-6.9,32.8-7.8c19-0.9,27.8,5.3,28.1,5.4c0.3,0.3,0.9,0.3,1.2-0.1
		C86,9.7,86,9.1,85.6,8.8C85.3,8.5,76.2,2.2,56.6,3S23.3,11,23.1,11c-0.4,0.1-0.6,0.7-0.4,1.2C22.8,12.4,23.1,12.6,23.4,12.6z"/>
	<path class="st0" d="M98.1,22.3l-6.8-3.5l0.9-7.1c0.1-0.6-0.3-1-0.7-1.2c-0.6-0.1-1,0.1-1.3,0.6l-3.8,7.1l-6.5,0.3
		c-0.4,0-0.9,0.4-1,0.9c-0.1,0.4,0.1,1,0.6,1.2l6,2.9l-0.1,7.8c-0.1,0.4,0.3,0.9,0.7,1c0.1,0,0.1,0,0.3,0c0.4,0,0.7-0.3,1-0.4
		l4.4-7.5l5.9,0.1c0.4,0,0.9-0.4,1-0.9C98.8,23,98.5,22.6,98.1,22.3z M91.3,22.4c-0.4,0-0.9,0.3-1,0.6L87,28.6l0.1-5.6
		c0-0.4-0.1-0.9-0.6-1l-4.1-1.9l4.3-0.1c0.3,0,0.7-0.3,0.9-0.6l2.4-4.3l-0.4,4c0,0.4,0.1,0.9,0.6,1l4.7,2.5L91.3,22.4z"/>
	<path class="st0" d="M36.4,37.3c0,0,0.3-5.9-5.3-7.6c-5.9-1.9-9.7-1.5-14.5,10.4c0.4,3.8,9.1,6.5,9.1,6.5c0-0.3,0-0.6,0-1
		c1,0.5,2,0.8,2.8,0.8c2.6,0,3.7-2.8,4-3.2c0.3,0,0.6,0.1,1,0.1s0.7-0.1,1-0.4s0.3-0.6,0.3-1c-0.2-1.5,0.6-3.6,0.8-4.2
		C35.9,37.6,36.2,37.5,36.4,37.3z M34.1,41.7c0,0.3,0,0.6-0.1,0.7c-0.3,0.1-0.4,0.3-0.9,0.3c-0.4,0-1-0.1-1-0.1h-0.1v0.1
		c0,0-0.6,3.4-3.4,3.4c-0.7,0-1.6-0.3-2.6-0.9l0.7-2.8c1.2-2.8,3.2-5.3,3.2-5.3s2.4,1.2,5.1,0.7C34.4,38.8,34,40.5,34.1,41.7z"/>
	<polygon class="st0" points="24.5,64.7 59.8,64.7 59.8,95.1 64.9,95.1 64.9,64.7 69.8,64.7 69.8,61 24.5,61 	"/>
	<path class="st0" d="M45.8,57v2.2h16.6V57h-6.8V43.4V42v-0.3H50V28.4c0-1-0.6-1.9-1.5-1.9S47,27.3,47,28.4v24.2
		c0,1,0.6,1.9,1.5,1.9s1.5-0.9,1.5-1.9v-9.3h2.9V57H45.8z"/>
	<path class="st0" d="M41.7,70.7c0.1-0.8,0.1-1.5,0-2.1c-0.3-2.2-1.3-4.3-6.2-3.2c-5,1-14.7,2.9-14.7,2.9l1-9.2
		c0.6,0.5,1.3,0.8,2,0.7c3.4-0.3,11.6-3.4,11.6-3.4s0.5,0.7,0.8,1.2h-1.1v1.8H41v-1.8h-2.2c0.4-0.4,0-0.9-0.3-1.5
		c-0.3-0.6-0.1-0.7-0.1-0.7s1.5,1,1.6,0.4c0.3-0.6-1.2-1.2-1.2-1.2s1.5,0,1.6-0.4c0.1-0.4-1.5-1.3-4-1.2c-2.2,0.1-11,4.3-12,2.4
		c-0.3-0.6-0.9-2.1-1.7-3.6l0-0.3c0,0,0.4-6-3.7-7.2c-4.3-1.3-8.2,9-10.7,20c-0.2,0.7-0.3,1.3-0.4,1.9L5.7,51
		c-0.3-1.5-1.3-2.6-2.4-2.5c-1,0.1-1.8,1.5-1.5,3.1L5.7,77c0.2,1.3,0.9,2.1,1.7,2.4c0,0.2-0.1,0.3-0.1,0.5c0,1.6,1.3,2.8,2.8,2.8
		h6.6V87c-9.9,0.2-12.5,4.5-12.5,4.5v1.7c-0.8,0.4-1.5,1.3-1.5,2.2C2.8,96.8,4,98,5.3,98s2.5-1.2,2.5-2.5c0-0.9-0.5-1.6-1.2-2.1
		l-0.1-1.1c0.8-1.1,4.7-2.1,10.3-2.6v4.4c-0.8,0.4-1.3,1.3-1.3,2.2c0,1.3,1.2,2.5,2.5,2.5c1.3,0,2.5-1.2,2.5-2.5
		c0-1-0.6-1.8-1.5-2.2v-4.4c5.1,0,8.1,1.7,9.6,2.1c0.7,0.2,1.1,0.8,1.3,1.5c-1,0.4-1.7,1.3-1.7,2.3c0,1.3,1.2,2.5,2.5,2.5
		c1.3,0,2.5-1.2,2.5-2.5c0-0.9-0.5-1.7-1.3-2.2c0-0.6,0-1.2-0.3-1.7c-0.8-1.1-3.4-4.3-12.5-4.7v-4.3h10.3c1.6,0,2.8-1.3,2.8-2.8
		c0-1.5-1.2-2.8-2.6-2.8H17.8c5.5-1.3,15.3-3.5,15.3-3.5s4.3-1.8,3.2,2.9c-1.3,6.2-6,15.4-3.2,16.8c2.7,1.3,3.6-3.9,5.3-9.4
		c0.4,3.7,0.9,6.9,1.1,7.6c0.6,1.9,4.4,5.7,4-2.2C42.8,79.1,42.1,73.2,41.7,70.7z M38.3,57.6h-0.6c0-0.3-0.1-0.6-0.2-0.9
		C37.7,57.1,38,57.5,38.3,57.6z M10.1,77.2c-0.2,0-0.4,0-0.5,0.1c0-0.3,0-0.5-0.1-0.8l-0.2-1.3c0.6,0.9,1.3,1.6,2,2H10.1z"/>
</g>
</svg>
